<svg width="36" height="36" viewBox="0 0 36 36" fill="none" xmlns="http://www.w3.org/2000/svg">
<g clip-path="url(#clip0_10_34)">
<circle cx="18" cy="18" r="18" fill="#FF6161"/>
<g clip-path="url(#clip1_10_34)">
<path d="M11.069 9.90745C12.0641 9.90745 12.8708 9.03308 12.8708 7.9545C12.8708 6.87592 12.0641 6.00156 11.069 6.00156C10.074 6.00156 9.26729 6.87592 9.26729 7.9545C9.26729 9.03308 10.074 9.90745 11.069 9.90745Z" fill="white"/>
<path d="M10.8196 22.2862V29.0765C10.8102 30.3101 9.116 30.3101 9.10103 29.0765V22.2862H6.88348L9.26734 13.2126H8.87927L7.49331 18.3803C7.14294 19.5233 5.71706 19.0606 6.0519 17.8395L7.60419 12.2511C7.7827 11.6093 8.5289 10.4761 9.82173 10.4484H10.9859H12.3165C13.572 10.4761 14.3214 11.619 14.534 12.2511L16.0863 17.8395C16.4012 19.0546 14.9866 19.5533 14.6449 18.3803L13.2589 13.2126H12.8154L15.2547 22.2862H12.9817V29.0765C12.9995 30.3101 11.3119 30.3041 11.3186 29.0765V22.2862H10.8196Z" fill="white"/>
<path d="M25.8157 9.90745C26.8108 9.90745 27.6174 9.03308 27.6174 7.9545C27.6174 6.87592 26.8108 6.00156 25.8157 6.00156C24.8206 6.00156 24.0139 6.87592 24.0139 7.9545C24.0139 9.03308 24.8206 9.90745 25.8157 9.90745Z" fill="white"/>
<path d="M23.9031 10.4484C22.5177 10.4484 21.6301 11.7486 21.6301 13.0323V19.0413C21.6173 20.2155 23.1772 20.2155 23.1824 19.0413V13.513H23.5704V28.776C23.5464 30.3696 25.6239 30.3239 25.6217 28.776V19.8826H25.9543V28.776C25.9815 30.3239 28.0698 30.3696 28.061 28.776V13.513H28.449V19.0413C28.4307 20.2245 29.9825 20.2245 30.0013 19.0413V13.0323C29.9791 11.7486 29.0583 10.4714 27.6729 10.4484H23.9031Z" fill="white"/>
<path d="M19.5789 6.24203H17.5274V29.8577H19.5789V6.24203Z" fill="white"/>
</g>
</g>
<defs>
<clipPath id="clip0_10_34">
<rect width="36" height="36" fill="white"/>
</clipPath>
<clipPath id="clip1_10_34">
<rect width="24" height="24" fill="white" transform="translate(6 6)"/>
</clipPath>
</defs>
</svg>
